<svg id="Layer_1" xmlns="http://www.w3.org/2000/svg" viewBox="0 0 499.4 182.1"><path fill="#00A545" d="M234.3 81.6l-2.4-7.4h-15l-2.5 7.4h-8.9L218.3 45c.9-2.7 2.9-4.1 6.3-4.1 3.2 0 5.3 1.5 6.2 4.1l12.5 36.7h-9v-.1zm-9.8-31.8l-5.9 17.9h11.6l-5.7-17.9zM263.3 51.9h7.5v24c0 2.7-1.3 4.1-3.8 4.7-4.1 1.1-7 1.4-9.6 1.4-8.7 0-12.1-4.4-12.1-10.6V51.9h7.4v18.7c0 2.8 1.3 5 5 5 1.3 0 2.7-.1 5.5-.9V51.9h.1zM292.3 64.5c5.5.9 8.5 3.5 8.5 8.2 0 6.2-5 9.3-11.4 9.3-3.8 0-6.9-.5-10.6-1.7l-2.8-.9 1.1-5.9 2.8.9c3 1 6.2 1.8 9.4 1.8 2.3 0 4.4-.9 4.4-3.2 0-1.6-1.1-2.7-3.7-3l-5.5-.9c-5.5-.9-8.4-3.6-8.4-8.3 0-6.2 5.1-9.3 11.5-9.3 3.8 0 6.8.5 10.6 1.7l2.8.9-1.1 6-2.9-.9c-3-1-6.2-1.8-9.3-1.8-2.4 0-4.4.9-4.4 3.2 0 1.7 1 2.7 3.7 3.1l5.3.8zM325.1 80.8c-2.9.8-5.1 1.1-7.3 1.1-6.8 0-10-3.7-10-11v-13h-4.2v-5.7h4.2v-6.3l7.3-1.4v7.7h9.1v5.7h-9.1v13.6c0 2.7 1 4.6 4 4.6 1.4 0 3.1-.4 5-.9l1 5.6zM345.9 57.8c-3.7 0-6.7.3-9.5 1v22.8H329V57.8c0-2.7 1.3-4 3.8-4.7 3.9-1.1 7.3-1.4 13.1-1.4v6.1zM375.1 82.3l-2.6-1.5c-1.4-.8-2.8-.8-4.3-.4l-1.8.4c-2.4.6-5.5 1.1-7.6 1.1-6.5 0-10.4-3.2-10.4-8.6 0-7.8 6.6-9.3 14.1-9.3h5v-2c0-3.3-2.1-4.4-5.3-4.4-2.4 0-5.6.6-8.8 1.6l-3 .9-1-5.9 2.8-.9c3.8-1.2 7.4-1.8 10.8-1.8 6.7 0 11.6 2.8 11.6 10.2v13.7l3.3 2-2.8 4.9zm-7.6-13.1h-6.3c-3.4 0-5.5 1.1-5.5 3.9 0 2.4 1.7 3.5 4.5 3.5 1.2 0 3.1-.2 5-.8l2.3-.6v-6zM381.6 81.6V41.1l7.6-1.4v41.9h-7.6zM398.8 48c-2.7 0-4.3-1.6-4.3-4.1 0-2.4 1.6-4 4.3-4 2.7 0 4.3 1.6 4.3 4 0 2.6-1.6 4.1-4.3 4.1zm-3.7 33.6V51.9h7.4v29.8h-7.4v-.1zM434.2 82.3l-2.6-1.5c-1.4-.8-2.8-.8-4.3-.4l-1.8.4c-2.4.6-5.5 1.1-7.6 1.1-6.5 0-10.4-3.2-10.4-8.6 0-7.8 6.6-9.3 14.1-9.3h5v-2c0-3.3-2.1-4.4-5.3-4.4-2.4 0-5.6.6-8.8 1.6l-3 .9-1-5.9 2.8-.9c3.8-1.2 7.4-1.8 10.8-1.8 6.7 0 11.6 2.8 11.6 10.2v13.7l3.3 2-2.8 4.9zm-7.6-13.1h-6.3c-3.4 0-5.5 1.1-5.5 3.9 0 2.4 1.7 3.5 4.5 3.5 1.2 0 3.1-.2 5-.8l2.3-.6v-6zM448.2 81.6h-7.5v-24c0-2.6 1.3-4 3.8-4.7 4.1-1.1 7-1.4 9.6-1.4 8.7 0 12.1 4.4 12.1 10.7v19.4h-7.4V62.9c0-2.8-1.2-4.9-5-4.9-1.3 0-2.7.1-5.5.9v22.7h-.1z"/><path fill="#231F20" d="M228 108.2v33.5h-9v-33.5h-11.6v-6.8h32.2v6.8H228zM264.3 135.5v-13.7c0-7.5-4.9-10.2-11.6-10.2-3.4 0-7 .7-10.8 1.8l-2.8.9 1 5.9 3-.9c3.2-1 6.4-1.6 8.8-1.6 3.1 0 5.3 1.1 5.3 4.4v2h-5c-7.5 0-14.1 1.5-14.1 9.3 0 5.4 3.9 8.6 10.4 8.6 2.1 0 5.2-.5 7.6-1.1l1.8-.4c1.6-.4 3-.3 4.3.4l2.6 1.5 2.8-4.9-3.3-2zm-7-.2l-2.3.6c-2 .5-3.8.8-5 .8-2.8 0-4.5-1.1-4.5-3.5 0-2.8 2.1-3.9 5.5-3.9h6.3v6zM293.5 134.6c-3.2 1-5.6 1.4-8.1 1.4-4.5 0-7.6-2.1-8-6.7h17.2c2.2 0 3.1-1 3.1-3.1 0-9.9-5.4-14.6-13.6-14.6-7.5 0-14 4.7-14 15.3 0 10.1 5.9 15.1 14.8 15.1 3.1 0 5.9-.5 9.6-1.7l2.9-.9-1-5.6-2.9.8zm-9.6-17.6c4.6 0 6.6 3.3 6.6 7.2h-13.1c.2-4.5 2.6-7.2 6.5-7.2zM320.9 141.7l-6.3-13.6-2.4 2.6c-1.6 1.8-2.9 3.2-2.9 6.4v4.6h-7.4v-40.6l7.4-1.4v24.9l10.8-12.7h9l-8.8 10.1 9.1 19.7h-8.5zM366.7 138.4c-.5 2.4-2.4 3.9-5.1 3.9-3.5 0-4.7-1.3-5.4-3.7l-4.7-15.5-5 15.7c-.8 2.3-2.5 3.5-5.3 3.5-2.9 0-4.7-1.4-5.2-3.8l-5.4-26.5h7.8l3.5 21.6 5.7-19.1c.5-1.8 1.9-2.7 4.1-2.7 2.2 0 3.6.9 4.1 2.7l5.6 19.1L365 112h7.5l-5.8 26.4zM389.6 111.6c-8.9 0-14.6 5.5-14.6 15.2 0 9.6 5.5 15.2 14.5 15.2 8.9 0 14.6-5.5 14.6-15.2s-5.5-15.2-14.5-15.2zm0 24.9c-4.6 0-7-3.3-7-9.6 0-6.2 2.3-9.7 6.9-9.7 4.6 0 7.1 3.4 7.1 9.7 0 6.2-2.4 9.6-7 9.6zM416.1 141.7h-7.5v-24c0-2.6 1.3-4 3.8-4.7 4.1-1.1 7-1.4 9.7-1.4 8.7 0 12.1 4.4 12.1 10.7v19.4h-7.4V123c0-2.8-1.2-4.9-5-4.9-1.3 0-2.7.1-5.5.9v22.7h-.2zM458.4 101.1V113c-2.3-.7-4.4-1.2-6.5-1.2-8.8 0-13.3 5.6-13.3 15.2 0 9.5 5.2 15 14.1 15 2.7 0 5.4-.2 9.4-1.4 2.5-.7 3.7-2.1 3.7-4.7V99.7c-2.4.5-4.9.9-7.4 1.4zm0 34.1c-2.6.6-3.7.8-5.3.8-5.1 0-7.2-3.5-7.2-9.1 0-5.7 2-9.1 6.9-9.1 1.2.1 2.5.2 5.5 1v16.4h.1zM484.9 111.6c-8.9 0-14.6 5.5-14.6 15.2 0 9.6 5.5 15.2 14.5 15.2 8.9 0 14.6-5.5 14.6-15.2s-5.5-15.2-14.5-15.2zm0 24.9c-4.6 0-7-3.3-7-9.6 0-6.2 2.3-9.7 6.9-9.7 4.6 0 7.1 3.4 7.1 9.7 0 6.2-2.4 9.6-7 9.6z"/><path fill="#00A545" d="M182.1 91c0-50.3-40.8-91-91-91C40.8 0 0 40.8 0 91c0 50.3 40.8 91 91 91 50.3.1 91.1-40.7 91.1-91zM64.2 46.7c0 9.3-7.5 16.9-16.9 16.9-9.3 0-16.9-7.5-16.9-16.9 0-9.3 7.5-16.9 16.9-16.9 9.3 0 16.9 7.6 16.9 16.9zm51.6-28.9c0 54.3-44 98.3-98.3 98.3v-14.8c0-13.2 14.3-14.2 14.3-14.2C64 80.5 88.3 52 88.3 17.8h27.5zm49.5 50.3v14.8c0 13.2-14.3 14.2-14.3 14.2-32.2 6.6-56.5 35.2-56.5 69.3H67c0-54.3 44-98.3 98.3-98.3z"/></svg>